<?xml version="1.0" encoding="UTF-8" standalone="no"?>
<!-- Created with Inkscape (http://www.inkscape.org/) -->

<svg
   width="512"
   height="512"
   viewBox="0 0 512 512"
   version="1.1"
   id="svg1"
   xml:space="preserve"
   inkscape:export-filename="bitmap.svg"
   inkscape:export-xdpi="96"
   inkscape:export-ydpi="96"
   xmlns:inkscape="http://www.inkscape.org/namespaces/inkscape"
   xmlns:sodipodi="http://sodipodi.sourceforge.net/DTD/sodipodi-0.dtd"
   xmlns="http://www.w3.org/2000/svg"
   xmlns:svg="http://www.w3.org/2000/svg"><sodipodi:namedview
     id="namedview1"
     pagecolor="#505050"
     bordercolor="#eeeeee"
     borderopacity="1"
     inkscape:showpageshadow="0"
     inkscape:pageopacity="0"
     inkscape:pagecheckerboard="0"
     inkscape:deskcolor="#505050"
     inkscape:document-units="px" /><defs
     id="defs1" /><g
     inkscape:label="Layer 1"
     inkscape:groupmode="layer"
     id="layer1"><path
       id="rect1"
       style="fill:#ccc;stroke-width:37.4609;stroke-linecap:round"
       d="M -160.05706,-224.5211 V 710.76915 H 858.94954 V -224.5211 Z m 415.97397,103.33939 c 211.84202,0 383.59956,171.75754 383.59956,383.59956 0,211.84202 -171.75754,383.59956 -383.59956,383.59956 -211.842019,0 -383.59956,-171.75754 -383.59956,-383.59956 0,-211.84202 171.757541,-383.59956 383.59956,-383.59956 z m 159.8351,151.842459 c -15.69556,0 -29.15469,9.142227 -35.70784,22.280452 L 287.08554,33.186438 c -2.58929,-0.543438 -5.30696,-0.03372 -7.51266,1.404783 -2.2057,1.438499 -3.77335,3.708824 -4.31678,6.298121 L 246.8063,174.66862 c -59.55359,1.66228 -113.06392,19.50177 -151.807349,47.40852 -10.03745,-9.65387 -23.65704,-15.60186 -38.6813,-15.60186 -30.9116,0 -55.94256986,25.03096 -55.94256986,55.94257 0,22.72815 13.58872986,42.26113 33.05629986,51.01998 -0.8631,5.56214 -1.34331,11.1881 -1.34331,16.91008 0,86.05386 100.181949,155.83732 223.764449,155.83732 123.5825,0 223.7674,-69.78346 223.7674,-155.83732 0,-5.69001 -0.44804,-11.28625 -1.31114,-16.81642 19.59544,-8.69492 33.27896,-28.28981 33.31092,-51.14583 0,-30.91162 -25.03096,-55.94259 -55.94257,-55.94259 -15.08818,0 -28.73766,6.00971 -38.80715,15.69554 -38.23191,-27.58709 -90.91309,-45.42411 -149.60359,-47.46999 l 25.47633,-119.874858 83.24222,17.709053 c 0.99096,21.161839 18.3495,38.072575 39.76707,38.072575 22.05686,0 39.95731,-17.900407 39.95731,-39.957322 0,-22.056915 -17.90045,-39.957319 -39.95731,-39.957319 z M 168.00965,262.41785 c 22.02496,0 39.95732,17.93235 39.95732,39.95732 0,22.02492 -17.93236,39.96022 -39.95732,39.96022 -22.02493,0 -39.95731,-17.9353 -39.95731,-39.96022 0,-22.02497 17.93238,-39.95732 39.95731,-39.95732 z m 175.81745,0 c 22.02495,0 39.9573,17.93233 39.9573,39.95732 0,22.05691 -17.93235,39.96022 -39.9573,39.96022 -22.05695,0 -39.96024,-17.93527 -39.96024,-39.96022 0,-22.02499 17.93527,-39.95732 39.96024,-39.95732 z m -0.27804,127.85578 c 2.64924,0.004 5.29684,1.01675 7.31073,3.04664 4.05976,4.05976 4.0278,10.61414 0,14.64193 -27.26751,27.23554 -79.53475,29.34534 -94.91069,29.34534 -15.37593,0 -67.64002,-2.1098 -94.87556,-29.34534 -4.05976,-4.05975 -4.05976,-10.58217 0,-14.64193 4.05975,-4.05977 10.57925,-4.05977 14.63901,0 17.19803,17.19803 53.96001,23.27256 80.23655,23.27256 26.27655,0 63.03876,-6.10674 80.26874,-23.30476 2.02989,-2.0139 4.68199,-3.01842 7.33122,-3.01444 z" /></g></svg>
